<?xml version="1.0" encoding="UTF-8" standalone="no"?>
<!-- Created with Inkscape (http://www.inkscape.org/) -->

<svg
   width="45.498604mm"
   height="41.933704mm"
   viewBox="0 0 45.498604 41.933704"
   version="1.1"
   id="svg5"
   inkscape:version="1.1.2 (0a00cf5339, 2022-02-04)"
   sodipodi:docname="query-bin.svg"
   xmlns:inkscape="http://www.inkscape.org/namespaces/inkscape"
   xmlns:sodipodi="http://sodipodi.sourceforge.net/DTD/sodipodi-0.dtd"
   xmlns:xlink="http://www.w3.org/1999/xlink"
   xmlns="http://www.w3.org/2000/svg"
   xmlns:svg="http://www.w3.org/2000/svg">
  <sodipodi:namedview
     id="namedview7"
     pagecolor="#ffffff"
     bordercolor="#666666"
     borderopacity="1.0"
     inkscape:pageshadow="2"
     inkscape:pageopacity="0.0"
     inkscape:pagecheckerboard="0"
     inkscape:document-units="mm"
     showgrid="false"
     inkscape:zoom="1.7454129"
     inkscape:cx="142.94612"
     inkscape:cy="169.01445"
     inkscape:window-width="1920"
     inkscape:window-height="1043"
     inkscape:window-x="1128"
     inkscape:window-y="0"
     inkscape:window-maximized="1"
     inkscape:current-layer="g10043"
     fit-margin-top="0"
     fit-margin-left="0"
     fit-margin-right="0"
     fit-margin-bottom="0"
     objecttolerance="26"
     inkscape:snap-path-mask="true"
     inkscape:snap-path-clip="true"
     gridtolerance="10000" />
  <defs
     id="defs2" />
  <g
     inkscape:label="Layer 1"
     inkscape:groupmode="layer"
     id="layer1"
     transform="translate(-115.0326,-39.835292)">
    <path
       id="path857"
       style="fill:#ececec;stroke:#000000;stroke-width:0.529167;stroke-linejoin:round"
       d="m 160.23982,51.106054 a 16.665733,5.5552444 0 0 1 -16.66574,5.555245 16.665733,5.5552444 0 0 1 -16.66573,-5.555245 16.665733,5.5552444 0 0 1 16.66573,-5.555244 16.665733,5.5552444 0 0 1 16.66574,5.555244 z" />
    <g
       id="g5230"
       transform="matrix(0.35584957,0,0,0.35584957,125.43913,20.030416)" />
    <g
       id="g7120"
       transform="translate(-32.940117,2.2515791)"
       inkscape:tile-cx="111.62364"
       inkscape:tile-cy="-29.050638"
       inkscape:tile-w="8.3634043"
       inkscape:tile-h="9.2811292"
       inkscape:tile-x0="107.42871"
       inkscape:tile-y0="-33.691104">
      <path
         id="path5873"
         style="fill:#ffffff;stroke:#000000;stroke-width:0.101389;stroke-linejoin:round;stroke-opacity:0.88964"
         d="m 167.38053,43.18313 -0.36189,1.06822 -1.18058,0.379365 -0.16292,0.749906 -0.86374,0.244573 0.69768,0.520411 -0.12817,0.589736 -0.45697,2.104809 0.69603,0.64619 -0.51158,0.407685 1.29955,0.323647 0.0826,0.07668 0.81206,0.753767 0.45163,1.20485 0.31813,-0.509377 2.00845,-0.645455 2.02353,-0.65042 0.1655,-0.762409 0.10555,0.0388 -0.0671,-0.215519 0.25322,-1.165681 0.45697,-2.104625 -0.90971,-0.844425 0.39059,-0.496687 -0.9384,-0.01177 -0.10904,-0.101324 -1.56656,-1.454204 -0.34664,0.111437 -0.15594,-0.232989 -0.10757,0.317762 -1.36999,0.440234 z" />
      <path
         id="path5390"
         style="fill:#ffffff;stroke:#000000;stroke-width:0.0941517px;stroke-linecap:butt;stroke-linejoin:miter;stroke-opacity:0.88964"
         d="m 167.0451,44.251153 1.11824,0.908474 m 2.33021,5.257712 -0.61973,-1.220139 -2.62363,-2.999222 m 5.08452,3.310416 -1.57016,-0.50738 -0.77893,-1.463571 m -0.51962,-1.068681 1.80768,1.696048 1.77121,-1.926722 m -0.9097,-0.844425 -1.255,1.775917 -0.71194,-1.357571 m -0.60311,-2.370894 0.0617,1.567317 0.54142,0.803577 m -2.23662,-1.845887 -0.88654,0.285031 m 1.76807,4.469115 -3.27762,-2.57486 1.38225,-0.787516 3.25045,0.454117 m -2.06946,5.931388 1.20249,-1.405231 -0.48811,-1.617898 m 3.31761,1.727254 -1.36623,-1.446508 -0.77893,-1.463571 m -4.33919,1.9487 0.76154,-1.50557 2.03376,1.762539 m -1.03474,-6.560179 -0.36189,1.06822 -1.18058,0.379365 -0.16292,0.749906 -0.86374,0.244573 0.69768,0.520411 -0.12817,0.589736 -0.45697,2.104809 0.69603,0.64619 -0.51158,0.407685 1.29955,0.323647 0.0826,0.07668 0.81206,0.753767 0.45163,1.20485 0.31813,-0.509377 2.00845,-0.645455 2.02353,-0.65042 0.1655,-0.762409 0.10555,0.0388 -0.0671,-0.215519 0.25322,-1.165681 0.45697,-2.104625 -0.90971,-0.844425 0.39059,-0.496687 -0.9384,-0.01177 -0.10904,-0.101324 -1.56656,-1.454204 -0.34664,0.111437 -0.15594,-0.232989 -0.10757,0.317762 -1.36999,0.440234 z m -0.36189,1.06822 1.11824,0.908474 m 2.33021,5.257712 -0.61973,-1.220139 -2.62363,-2.999222 m 5.08452,3.310416 -1.57016,-0.50738 -0.77893,-1.463571 m -0.51962,-1.068681 1.80768,1.696048 1.77121,-1.926722 m -0.9097,-0.844425 -1.255,1.775917 -0.71194,-1.357571 m -0.60311,-2.370894 0.0617,1.567317 0.54142,0.803577 m -2.23661,-1.845887 -0.88654,0.285031 m 1.76807,4.469115 -3.27762,-2.57486 1.38225,-0.787516 3.25045,0.454117 m -2.06946,5.931388 1.20249,-1.405231 -0.48811,-1.617898 m 3.31761,1.727254 -1.36623,-1.446508 -0.77893,-1.463571 m -4.33919,1.9487 0.76154,-1.50557 2.03376,1.762539 m -1.03473,-6.560179 -0.3619,1.06822 -1.18057,0.379365 -0.16293,0.749906 -0.86373,0.244573 0.69768,0.52041 -0.12818,0.589737 -0.45696,2.104809 0.69602,0.64619 -0.51158,0.407685 1.29955,0.323647 0.0826,0.07668 0.81206,0.753767 0.45163,1.20485 0.31813,-0.509377 2.00845,-0.645455 2.02353,-0.65042 0.16551,-0.762409 0.10555,0.0388 -0.0671,-0.21552 0.25322,-1.165681 0.45696,-2.104625 -0.9097,-0.844425 0.39058,-0.496688 -0.93839,-0.01177 -0.10905,-0.101323 -1.56656,-1.454205 -0.34663,0.111437 -0.15594,-0.232989 -0.10758,0.317763 -1.36998,0.440233 z" />
    </g>
    <use
       x="0"
       y="0"
       inkscape:tiled-clone-of="#g7120"
       xlink:href="#g7120"
       transform="rotate(-31.788185,141.40919,58.813644)"
       id="use7584"
       width="100%"
       height="100%" />
    <use
       x="0"
       y="0"
       inkscape:tiled-clone-of="#g7120"
       xlink:href="#g7120"
       transform="rotate(41.510717,127.18822,50.054024)"
       id="use7586"
       width="100%"
       height="100%" />
    <use
       x="0"
       y="0"
       inkscape:tiled-clone-of="#g7120"
       xlink:href="#g7120"
       transform="rotate(-3.618657,133.91436,-40.856895)"
       id="use7588"
       width="100%"
       height="100%" />
    <use
       x="0"
       y="0"
       inkscape:tiled-clone-of="#g7120"
       xlink:href="#g7120"
       transform="rotate(116.78564,137.39018,53.725927)"
       id="use7590"
       width="100%"
       height="100%" />
    <use
       x="0"
       y="0"
       inkscape:tiled-clone-of="#g7120"
       xlink:href="#g7120"
       transform="rotate(39.131122,137.78544,63.858591)"
       id="use7592"
       width="100%"
       height="100%" />
    <use
       x="0"
       y="0"
       inkscape:tiled-clone-of="#g7120"
       xlink:href="#g7120"
       transform="rotate(73.997288,141.66079,58.63115)"
       id="use7594"
       width="100%"
       height="100%" />
    <use
       x="0"
       y="0"
       inkscape:tiled-clone-of="#g7120"
       xlink:href="#g7120"
       transform="rotate(-70.977018,140.45065,41.39961)"
       id="use7596"
       width="100%"
       height="100%" />
    <use
       x="0"
       y="0"
       inkscape:tiled-clone-of="#g7120"
       xlink:href="#g7120"
       transform="rotate(48.666881,137.30568,64.493305)"
       id="use7598"
       width="100%"
       height="100%" />
    <use
       x="0"
       y="0"
       inkscape:tiled-clone-of="#g7120"
       xlink:href="#g7120"
       transform="rotate(-41.817098,145.54623,23.202101)"
       id="use7600"
       width="100%"
       height="100%" />
    <use
       x="0"
       y="0"
       inkscape:tiled-clone-of="#g7120"
       xlink:href="#g7120"
       transform="rotate(-7.674395,167.98798,-62.54953)"
       id="use7602"
       width="100%"
       height="100%" />
    <path
       id="path5916"
       style="fill:#ffffff;stroke:#000000;stroke-width:0.529167;stroke-linejoin:round"
       d="m 143.57408,56.661299 c -9.20423,-10e-7 -16.66573,-2.487168 -16.62306,-5.59323 0,0 4.81373,25.33394 4.81015,26.446738 -0.004,1.112798 5.28486,3.989604 11.81291,3.989605 6.52805,10e-7 11.53127,-2.679973 11.82008,-3.940025 0.28881,-1.260052 4.84566,-26.458333 4.84566,-26.458333 0,3.068078 -7.46151,5.555246 -16.66574,5.555245 z"
       sodipodi:nodetypes="sccsscs" />
    <g
       id="g10043"
       transform="translate(93.711112,-38.811969)">
      <g
         id="g2909"
         transform="matrix(0.3075328,0.3075328,-0.3075328,0.3075328,65.882979,24.629977)">
        <rect
           style="fill:#ffffff;stroke:#000000;stroke-width:1.32292;stroke-linejoin:round;stroke-miterlimit:4;stroke-dasharray:none"
           id="rect1202"
           width="15.401822"
           height="60.578304"
           x="67.515381"
           y="155.41052"
           ry="7.700911"
           rx="7.700911" />
        <path
           id="circle1098"
           style="fill:#ffffff;stroke:#000000;stroke-width:1.32292;stroke-linejoin:round;stroke-miterlimit:4;stroke-dasharray:none"
           d="m 95.230873,135.51309 c -10e-7,10.85785 -8.802029,19.65988 -19.659881,19.65988 -10.857852,0 -19.659881,-8.80203 -19.659882,-19.65988 10e-7,-10.85785 8.80203,-19.65988 19.659882,-19.65988 10.857852,0 19.65988,8.80203 19.659881,19.65988 z m 4.740461,0 c -2e-6,13.47594 -10.924406,24.40034 -24.400342,24.40034 -13.475936,0 -24.400341,-10.9244 -24.400343,-24.40034 2e-6,-13.47594 10.924407,-24.40034 24.400343,-24.40034 13.475936,0 24.40034,10.9244 24.400342,24.40034 z"
           sodipodi:nodetypes="ssssssssss" />
        <path
           id="rect1538"
           style="fill:none;stroke:#666666;stroke-width:5.00001;stroke-linejoin:round;stroke-miterlimit:4;stroke-dasharray:none"
           d="m 276.50195,611 c -6.39663,2.38727 -10.82812,7.61756 -10.82812,13.73242 v 166.82422 c 0,7.84047 7.27061,14.24895 16.65234,15.03906"
           transform="scale(0.26458333)"
           sodipodi:nodetypes="cssc" />
      </g>
      <path
         style="fill:none;stroke:#b3b3b3;stroke-width:0.255934px;stroke-linecap:butt;stroke-linejoin:miter;stroke-opacity:1"
         d="m 39.594322,87.180767 6.187888,-1.830132 6.265237,6.502817 3.297376,-3.38794"
         id="path9972" />
      <path
         id="path9751"
         style="font-size:2.65836px;line-height:1.25;stroke-width:0.0996884"
         d="m 46.364378,81.063739 c -0.10482,0.01332 -0.209314,0.02879 -0.313677,0.04599 -0.01033,0.01945 -0.02163,0.03806 -0.03411,0.05529 -0.07269,0.09951 -0.171831,0.149347 -0.298172,0.149347 -0.09741,0 -0.178914,-0.02973 -0.24443,-0.08888 -0.0851,0.02011 -0.170191,0.04081 -0.254765,0.06356 0.0037,0.0049 0.0071,0.01015 0.01085,0.01499 0.110765,0.140184 0.254283,0.210323 0.429948,0.210323 0.107305,0 0.198766,-0.02048 0.274918,-0.06201 0.07701,-0.0424 0.140494,-0.107247 0.190685,-0.193786 v 0.218074 h 0.238747 z m 2.243272,0.0098 v 0.403076 h 0.262001 v -0.363286 c -0.08718,-0.01461 -0.174484,-0.02789 -0.262001,-0.03979 z m -1.689819,0.07338 v 0.329694 h 0.273886 V 81.14694 Z m 3.073715,1.632974 v 2.020033 h 0.238746 v -2.020033 z m -1.36684,0.08165 -0.675413,2.184882 h 0.22066 l 0.67541,-2.184882 z m 0.895551,0 -0.674894,2.184882 h 0.22066 l 0.674893,-2.184882 z m -7.441922,0.02998 c -0.0809,0.06546 -0.160761,0.132691 -0.239779,0.201536 v 1.706875 h 0.239779 v -0.821656 c 0,-0.14192 0.0372,-0.254206 0.111619,-0.336415 0.07442,-0.08221 0.176472,-0.123505 0.305409,-0.123505 0.107302,0 0.187677,0.03448 0.241329,0.102836 0.05365,0.06837 0.08062,0.171436 0.08062,0.309025 v 0.869715 h 0.238744 V 83.92248 c 0,-0.200766 -0.04301,-0.352814 -0.128675,-0.455787 -0.08567,-0.103847 -0.211775,-0.156062 -0.378788,-0.156062 -0.101245,0 -0.190836,0.02185 -0.268716,0.06511 -0.07702,0.04327 -0.144426,0.108456 -0.201538,0.195855 z m 1.450041,0.04134 v 0.412893 h -0.175184 v 0.185518 h 0.175184 v 0.789617 c 0,0.181727 0.03533,0.306978 0.105417,0.376203 0.07009,0.06836 0.197054,0.10232 0.381374,0.10232 h 0.245464 v -0.199469 h -0.245464 c -0.09952,0 -0.165558,-0.01691 -0.198438,-0.05064 -0.03202,-0.03375 -0.04806,-0.109858 -0.04806,-0.22841 V 83.531278 H 44.26063 V 83.34577 h -0.49196 v -0.412377 z m 1.042312,0 v 0.412893 h -0.175183 v 0.185518 h 0.175183 v 0.789617 c 0,0.181727 0.03533,0.306978 0.105421,0.376203 0.07009,0.06836 0.197051,0.10232 0.38137,0.10232 h 0.245465 v -0.199469 h -0.245465 c -0.09952,0 -0.165555,-0.01691 -0.198437,-0.05064 -0.03202,-0.03375 -0.04806,-0.109858 -0.04806,-0.22841 v -0.789617 h 0.491961 V 83.34577 h -0.491961 v -0.412377 z m 1.742012,0.377754 c -0.106437,0 -0.198417,0.02168 -0.275434,0.06408 -0.07615,0.04153 -0.138944,0.10518 -0.189135,0.19172 v -0.22066 h -0.240297 v 2.007113 h 0.240297 v -0.771011 c 0.05019,0.08654 0.112985,0.150868 0.189135,0.19327 0.07702,0.04153 0.168997,0.06201 0.275434,0.06201 0.176532,0 0.319532,-0.07014 0.429432,-0.210322 0.110767,-0.140187 0.166399,-0.324485 0.166399,-0.552937 0,-0.228447 -0.05563,-0.412753 -0.166399,-0.55294 -0.1099,-0.140192 -0.2529,-0.210322 -0.429432,-0.210323 z m 4.980574,0 c -0.208549,0 -0.372371,0.06757 -0.490923,0.20257 -0.11769,0.134996 -0.176218,0.321858 -0.176218,0.560692 0,0.237971 0.05853,0.425344 0.176218,0.561205 0.118552,0.134993 0.282374,0.202054 0.490923,0.202054 0.207685,0 0.370825,-0.06706 0.489376,-0.202054 0.118555,-0.135861 0.177769,-0.323234 0.177769,-0.561205 0,-0.238834 -0.05921,-0.425696 -0.177769,-0.560692 -0.118551,-0.134998 -0.281691,-0.20257 -0.489376,-0.20257 z m 1.68982,0 c -0.226721,0 -0.405215,0.06825 -0.535884,0.204121 -0.129802,0.13586 -0.194821,0.32204 -0.194821,0.559141 0,0.233645 0.06433,0.419478 0.19327,0.55707 0.128937,0.137588 0.302998,0.206189 0.521933,0.206189 0.08048,0 0.156417,-0.0077 0.227375,-0.02325 0.07182,-0.0156 0.141108,-0.03915 0.20774,-0.07028 V 84.52296 c -0.0675,0.03727 -0.13576,0.06575 -0.20412,0.08475 -0.0675,0.0182 -0.13593,0.02739 -0.205158,0.02739 -0.154895,0 -0.275029,-0.04898 -0.360701,-0.146762 -0.08567,-0.09865 -0.128673,-0.237045 -0.128673,-0.414443 0,-0.177395 0.043,-0.314592 0.128673,-0.41238 0.08567,-0.09865 0.205803,-0.148312 0.360701,-0.148312 0.06923,0 0.13766,0.0094 0.205158,0.02842 0.06836,0.0182 0.136623,0.046 0.20412,0.0832 v -0.21549 c -0.0045,-0.0043 -0.009,-0.0086 -0.01344,-0.01292 -0.06164,-0.02728 -0.125278,-0.04826 -0.190685,-0.06201 -0.07009,-0.0156 -0.141939,-0.02377 -0.215493,-0.02377 z m -5.617744,0.114721 v 0.329697 h 0.273886 v -0.329697 z m -1.111044,0.08527 c 0.126341,0 0.225317,0.05051 0.29714,0.150894 0.07269,0.09952 0.109038,0.236718 0.109038,0.41238 0,0.175665 -0.03635,0.314058 -0.109038,0.414443 -0.07182,0.09951 -0.170799,0.149344 -0.29714,0.149344 -0.126341,0 -0.225999,-0.04983 -0.298688,-0.149344 -0.07183,-0.100385 -0.107487,-0.238778 -0.107487,-0.414443 0,-0.175662 0.03566,-0.312859 0.107487,-0.41238 0.07269,-0.10038 0.172347,-0.150894 0.298688,-0.150894 z m 5.038968,0.0026 c 0.127207,3e-6 0.227889,0.05068 0.302308,0.151929 0.07442,0.10038 0.111623,0.236561 0.111623,0.408763 0,0.173072 -0.0372,0.30993 -0.111623,0.41031 -0.07442,0.100381 -0.175101,0.150895 -0.302308,0.150895 -0.128936,0 -0.23047,-0.04983 -0.304889,-0.149344 -0.07355,-0.10038 -0.110588,-0.237921 -0.110588,-0.411861 0,-0.173935 0.0372,-0.310282 0.111622,-0.409795 0.07442,-0.10038 0.175784,-0.150897 0.303855,-0.150897 z m 2.643767,0.462505 c -0.01636,0.0095 -0.03202,0.02005 -0.04651,0.03101 -0.109035,0.08307 -0.163298,0.206449 -0.163298,0.370003 0,0.140187 0.04334,0.251963 0.130741,0.335897 0.08827,0.08307 0.207211,0.124539 0.356052,0.124539 0.117687,0 0.216829,-0.02048 0.298173,-0.06201 0.0083,-0.0043 0.01573,-0.01017 0.02377,-0.01499 -0.03379,-0.04992 -0.06788,-0.09999 -0.102836,-0.149347 -0.04716,0.01727 -0.09863,0.02687 -0.155546,0.02687 -0.09605,0 -0.172161,-0.02508 -0.228409,-0.07441 -0.05538,-0.05019 -0.0832,-0.11725 -0.0832,-0.202057 0,-0.104114 0.03577,-0.178739 0.106968,-0.223242 -0.04451,-0.0544 -0.08985,-0.108723 -0.135909,-0.162264 z m -6.571691,0.494543 v 0.329698 h 0.273886 v -0.329698 z m -6.923609,0.172601 c -0.03642,0.05193 -0.07184,0.10455 -0.106968,0.157097 h 0.106968 z m 0.419097,1.459857 v 0.787033 c -0.05019,-0.08654 -0.113672,-0.150702 -0.190687,-0.192236 -0.07615,-0.0424 -0.167614,-0.06356 -0.274918,-0.06356 -0.175668,0 -0.319183,0.07013 -0.429948,0.210323 -0.1099,0.140186 -0.164849,0.32449 -0.164849,0.552936 0,0.228455 0.05495,0.412753 0.164849,0.55294 0.110765,0.140187 0.25428,0.210322 0.429948,0.210322 0.107304,0 0.198768,-0.02099 0.274918,-0.06253 0.07702,-0.0424 0.140493,-0.10673 0.190687,-0.19327 v 0.218075 h 0.238745 v -2.020033 z m 4.879287,0 c -0.215471,0 -0.36001,0.03205 -0.433564,0.09612 -0.07269,0.06317 -0.109038,0.19064 -0.109038,0.381889 v 0.311092 c 0,0.128926 -0.02304,0.218516 -0.06976,0.268716 -0.04586,0.04933 -0.131019,0.07441 -0.254765,0.07441 h -0.07906 v 0.185518 h 0.07906 c 0.12288,0 0.208037,0.02473 0.254765,0.07493 0.04673,0.05019 0.06976,0.140634 0.06976,0.271301 v 0.310574 c 0,0.19128 0.03635,0.318923 0.109038,0.382923 0.07355,0.06407 0.218093,0.09612 0.433564,0.09612 h 0.08062 v -0.187068 h -0.08836 c -0.122018,0 -0.201539,-0.01929 -0.238747,-0.05736 -0.03721,-0.03807 -0.05581,-0.117763 -0.05581,-0.239779 v -0.321942 c 0,-0.134967 -0.01945,-0.233606 -0.05839,-0.295074 -0.03894,-0.06147 -0.106518,-0.103791 -0.20257,-0.127124 0.09519,-0.02161 0.162081,-0.06307 0.20102,-0.12454 0.03981,-0.06144 0.05994,-0.160245 0.05994,-0.296106 v -0.321426 c 0,-0.122028 0.0186,-0.202229 0.05581,-0.240297 0.03721,-0.03807 0.116732,-0.05736 0.238747,-0.05736 h 0.08836 V 86.10271 Z m -4.319632,0.566375 0.588079,1.430404 -0.04289,0.109037 c -0.04413,0.11598 -0.08458,0.189524 -0.120922,0.220658 -0.03635,0.03113 -0.0872,0.04651 -0.152964,0.04651 H 41.55175 v 0.199988 h 0.190688 c 0.107304,0 0.192797,-0.02626 0.256831,-0.07906 0.06404,-0.05279 0.129908,-0.165931 0.197403,-0.338997 l 0.638723,-1.588535 h -0.253214 l -0.454237,1.13688 -0.454237,-1.13688 z m 1.612305,0.07907 v 0.329694 h 0.273886 v -0.329694 z m -2.579172,0.08578 c 0.126341,0 0.225486,0.05 0.298175,0.150379 0.07269,0.09952 0.109037,0.237233 0.109037,0.412892 0,0.175668 -0.03635,0.313542 -0.109037,0.41393 -0.07269,0.09951 -0.171834,0.149344 -0.298175,0.149344 -0.126341,0 -0.225999,-0.04983 -0.298688,-0.149344 -0.07182,-0.100388 -0.108006,-0.238262 -0.108006,-0.41393 0,-0.175659 0.03618,-0.313375 0.108006,-0.412892 0.07269,-0.100381 0.172347,-0.150379 0.298688,-0.150379 z m -1.118277,0.0083 c -0.03739,0.112522 -0.07232,0.225825 -0.104902,0.339513 0.01597,0.06436 0.02481,0.135716 0.02481,0.21549 0,0.173075 -0.0372,0.309415 -0.111623,0.409795 -0.02519,0.03397 -0.05351,0.06176 -0.08475,0.08423 -0.01638,0.08346 -0.03109,0.166804 -0.04496,0.250632 0.127463,-0.02817 0.2334,-0.08903 0.316775,-0.18397 0.118555,-0.135859 0.177769,-0.322715 0.177769,-0.56069 0,-0.235561 -0.05779,-0.420457 -0.173117,-0.555003 z m 3.697449,0.950847 v 0.329694 h 0.273886 v -0.329694 z m 3.589962,1.714624 v 0.720368 h 0.220657 V 89.50767 Z m 0.490926,0 v 0.720368 h 0.220657 V 89.50767 Z m 5.990331,0 v 0.720368 h 0.220659 V 89.50767 Z m 0.49041,0 v 0.720368 h 0.220657 V 89.50767 Z m -5.757788,0.07131 v 0.412893 h -0.175183 v 0.185518 h 0.175183 v 0.789101 c 0,0.181726 0.03481,0.307493 0.104904,0.376722 0.07009,0.06836 0.197567,0.102317 0.381887,0.102317 h 0.245464 V 91.245546 H 48.32343 c -0.09952,0 -0.165555,-0.01691 -0.198438,-0.05064 -0.03202,-0.03375 -0.04806,-0.109858 -0.04806,-0.22841 v -0.789101 h 0.491961 v -0.185518 h -0.491961 v -0.412893 z m -6.56394,0.377754 c -0.178263,0 -0.315976,0.03719 -0.412895,0.111622 -0.09692,0.07442 -0.145727,0.180054 -0.145727,0.316775 0,0.112466 0.03293,0.2012 0.0987,0.266134 0.06576,0.06405 0.172934,0.111493 0.32091,0.142626 l 0.0832,0.01964 c 0.147976,0.032 0.243539,0.06514 0.286803,0.09974 0.04413,0.03458 0.06615,0.08441 0.06615,0.149344 0,0.07011 -0.03038,0.124365 -0.09095,0.163298 -0.06057,0.03807 -0.146918,0.05736 -0.259416,0.05736 -0.08394,0 -0.169093,-0.01112 -0.254765,-0.03359 -0.08567,-0.02336 -0.172699,-0.058 -0.260964,-0.10387 v 0.246496 c 0.09346,0.03027 0.182192,0.05297 0.266134,0.0677 0.0848,0.0156 0.166547,0.02325 0.244427,0.02325 0.186918,0 0.33333,-0.03959 0.439767,-0.118338 0.107304,-0.07875 0.161232,-0.185401 0.161232,-0.320394 0,-0.11852 -0.03618,-0.210669 -0.108003,-0.276468 -0.07096,-0.06664 -0.191096,-0.118179 -0.360704,-0.154515 l -0.08216,-0.01809 c -0.128074,-0.0286 -0.212881,-0.05878 -0.255283,-0.08992 -0.0424,-0.032 -0.06356,-0.07534 -0.06356,-0.130742 0,-0.0727 0.02901,-0.127481 0.08785,-0.163814 0.05971,-0.03633 0.149129,-0.05426 0.267684,-0.05426 0.07788,0 0.153136,0.0085 0.225824,0.02584 0.07269,0.01733 0.142828,0.04343 0.210326,0.07803 V 90.0348 c -0.06577,-0.02593 -0.13761,-0.04539 -0.215493,-0.05839 -0.07788,-0.013 -0.160814,-0.01964 -0.249079,-0.01964 z m 1.531689,0 c -0.218069,0 -0.391961,0.07013 -0.520898,0.210322 -0.128072,0.139322 -0.19172,0.327885 -0.19172,0.565857 0,0.230182 0.06706,0.412779 0.202054,0.547772 0.135861,0.134993 0.31999,0.20257 0.551905,0.20257 0.09259,0 0.183888,-0.0094 0.273886,-0.02842 0.09,-0.01906 0.17788,-0.04686 0.263549,-0.0832 v -0.225827 c -0.0848,0.04503 -0.170815,0.07882 -0.257349,0.101285 -0.08567,0.02247 -0.17389,0.03359 -0.265616,0.03359 -0.158361,0 -0.282424,-0.04301 -0.371554,-0.128675 -0.08826,-0.08653 -0.137409,-0.211786 -0.147794,-0.376206 h 1.098124 V 90.65902 c 0,-0.216342 -0.05734,-0.387157 -0.171566,-0.51263 -0.113361,-0.126347 -0.267451,-0.189653 -0.463021,-0.189653 z m 1.746663,0 c -0.115091,0 -0.212527,0.02185 -0.293005,0.06511 -0.08047,0.0424 -0.146177,0.107587 -0.196371,0.195855 v -0.225827 h -0.239779 v 1.453658 h 0.239779 v -0.765845 c 0,-0.16442 0.03618,-0.290353 0.108006,-0.377753 0.07269,-0.08827 0.176612,-0.132292 0.311607,-0.132292 0.03807,0 0.07272,0.0041 0.10387,0.01188 0.03202,0.0069 0.06154,0.01799 0.08837,0.03359 l -0.0016,-0.245462 c -0.02423,-0.004 -0.04624,-0.0068 -0.06614,-0.0088 -0.01991,-0.0027 -0.03834,-0.0041 -0.05478,-0.0041 z m 4.89531,0 c -0.208552,0 -0.372374,0.06757 -0.490926,0.202572 -0.11769,0.134994 -0.176734,0.321856 -0.176734,0.56069 0,0.237971 0.05904,0.424828 0.176734,0.560689 0.118552,0.134993 0.282374,0.20257 0.490926,0.20257 0.207682,0 0.370822,-0.06758 0.489373,-0.20257 0.118555,-0.135861 0.177769,-0.322718 0.177769,-0.560689 0,-0.238834 -0.05921,-0.425696 -0.177769,-0.56069 -0.118551,-0.135001 -0.281691,-0.202572 -0.489373,-0.202572 z m 1.76113,0 c -0.104706,0 -0.195148,0.02116 -0.271301,0.06356 -0.07615,0.0424 -0.141332,0.10827 -0.195852,0.197403 V 89.99191 h -0.240295 v 1.453658 h 0.240295 v -0.821656 c 0,-0.141052 0.03566,-0.252656 0.107487,-0.334862 0.07182,-0.08307 0.168923,-0.124539 0.290938,-0.124539 0.102976,0 0.179083,0.03378 0.22841,0.101285 0.04933,0.06663 0.0739,0.169873 0.0739,0.310057 v 0.869715 h 0.240294 v -0.821656 c 0,-0.14192 0.03566,-0.253688 0.107487,-0.335896 0.07182,-0.08221 0.169778,-0.123505 0.293524,-0.123505 0.101243,0 0.176498,0.03378 0.225824,0.101285 0.04933,0.06749 0.0739,0.170738 0.0739,0.310057 v 0.869715 h 0.240295 V 90.56807 c 0,-0.195575 -0.0413,-0.346081 -0.123508,-0.451652 -0.08221,-0.106442 -0.198929,-0.159681 -0.350363,-0.159681 -0.112496,0 -0.209934,0.02541 -0.293008,0.07648 -0.08307,0.05105 -0.154749,0.130405 -0.214455,0.237712 -0.03548,-0.1021 -0.09043,-0.179911 -0.164849,-0.233577 -0.07355,-0.05367 -0.163145,-0.08061 -0.268719,-0.08061 z m -12.106753,0.03514 v 0.880049 c 0,0.199901 0.04317,0.351949 0.129709,0.455787 0.08653,0.103841 0.213325,0.155546 0.380338,0.155546 0.101246,0 0.189982,-0.02116 0.266134,-0.06356 0.07701,-0.04327 0.14459,-0.109138 0.20257,-0.197405 v 0.223242 h 0.238747 v -1.453658 h -0.238747 v 0.82424 c 0,0.14192 -0.03737,0.253691 -0.112654,0.335897 -0.07442,0.08221 -0.176469,0.123507 -0.305408,0.123507 -0.107302,0 -0.187675,-0.03396 -0.241329,-0.102319 -0.05365,-0.06923 -0.08061,-0.17299 -0.08061,-0.310576 v -0.870749 z m 5.837369,0.07906 v 0.329698 h 0.273886 v -0.329698 z m -2.131136,0.08837 c 0.117689,0 0.211711,0.03891 0.28267,0.116788 0.07182,0.07788 0.108855,0.181975 0.110588,0.312642 l -0.851628,0.0015 c 0.01211,-0.136726 0.05785,-0.243046 0.137459,-0.318325 0.08048,-0.07529 0.187648,-0.112655 0.320911,-0.112655 z m 6.63939,0 c 0.127207,0 0.227886,0.05068 0.302305,0.151927 0.07442,0.10038 0.111623,0.236561 0.111623,0.408763 0,0.173071 -0.0372,0.30993 -0.111623,0.41031 -0.07442,0.10038 -0.175098,0.150379 -0.302305,0.150379 -0.128939,0 -0.230989,-0.04983 -0.305408,-0.149347 -0.07356,-0.10038 -0.110072,-0.237403 -0.110072,-0.411342 0,-0.173935 0.0372,-0.310799 0.111622,-0.410314 0.07442,-0.100377 0.175784,-0.150376 0.303858,-0.150376 z m -4.508254,0.95653 v 0.329695 h 0.273886 v -0.329695 z m 9.444384,0 v 0.223242 l -0.106452,0.415478 h 0.167431 l 0.212907,-0.415478 v -0.223242 z m -3.367235,1.632977 v 0.786513 c -0.05019,-0.08654 -0.113668,-0.150185 -0.190686,-0.191719 -0.07615,-0.0424 -0.167616,-0.06408 -0.274918,-0.06408 -0.175667,0 -0.319185,0.07013 -0.429947,0.210325 -0.1099,0.140187 -0.164849,0.324491 -0.164849,0.552937 0,0.228455 0.05495,0.41275 0.164849,0.552937 0.110765,0.140195 0.25428,0.210325 0.429947,0.210325 0.107302,0 0.198766,-0.02048 0.274918,-0.06201 0.07702,-0.0424 0.140499,-0.10673 0.190686,-0.19327 v 0.218075 h 0.239262 v -2.02003 z m 2.476851,0.08165 v 0.720368 h 0.22066 v -0.720368 z m 0.490411,0 v 0.720368 h 0.220657 v -0.720368 z m 0.723469,0.07183 v 0.41238 h -0.1757 v 0.185518 h 0.1757 v 0.569992 c 0.08418,-0.134755 0.163816,-0.27155 0.239778,-0.409795 v -0.159681 h 0.08578 c 0.03223,-0.06173 0.06343,-0.123695 0.09405,-0.186034 H 54.94576 v -0.41238 z M 39.821108,93.27953 c -0.02233,0 -0.04356,0.0018 -0.0646,0.0036 0.03393,0.06981 0.06896,0.139192 0.104902,0.208256 0.08044,0.0201 0.146502,0.06643 0.198437,0.139009 0.07111,0.09735 0.106974,0.231312 0.108522,0.401524 0.06655,0.107791 0.135437,0.214495 0.207221,0.319879 0.0276,-0.09204 0.04134,-0.194996 0.04134,-0.309026 0,-0.228446 -0.05512,-0.41275 -0.16588,-0.552937 -0.1099,-0.140194 -0.253418,-0.210325 -0.429948,-0.210325 z m 1.502233,0 c -0.07788,0 -0.158086,0.0085 -0.240295,0.02584 -0.08221,0.01647 -0.167365,0.04171 -0.254765,0.07545 v 0.220657 c 0.07269,-0.0398 0.14863,-0.06947 0.227375,-0.0894 0.07875,-0.01993 0.159809,-0.02997 0.24288,-0.02997 0.13067,0 0.232034,0.03035 0.303858,0.09095 0.07269,0.0597 0.109038,0.144348 0.109038,0.254248 v 0.02325 h -0.335381 c -0.217202,0 -0.380511,0.04198 -0.490408,0.125056 -0.109035,0.08307 -0.163298,0.205933 -0.163298,0.369488 0,0.140187 0.04334,0.252478 0.130741,0.336412 0.08827,0.08308 0.206693,0.124542 0.355534,0.124542 0.117687,0 0.217345,-0.02048 0.298691,-0.06201 0.08134,-0.0424 0.1496,-0.108103 0.204121,-0.196371 v 0.22066 h 0.238744 v -0.829408 c 0,-0.221525 -0.05222,-0.386543 -0.156062,-0.495575 -0.103841,-0.10904 -0.260493,-0.163817 -0.470773,-0.163817 z m 1.580782,0 c -0.178263,0 -0.315976,0.0372 -0.412893,0.111623 -0.09692,0.07442 -0.145211,0.180056 -0.145211,0.316777 0,0.112533 0.03294,0.201266 0.0987,0.266131 0.06577,0.06406 0.172421,0.111496 0.320394,0.142629 l 0.0832,0.01964 c 0.147974,0.03206 0.243536,0.06513 0.286803,0.09973 0.04413,0.03458 0.06615,0.08441 0.06615,0.149344 0,0.07011 -0.03038,0.124881 -0.09095,0.163815 -0.06057,0.03807 -0.146921,0.05684 -0.259416,0.05684 -0.08394,0 -0.168577,-0.01112 -0.254249,-0.03359 -0.08567,-0.02336 -0.172699,-0.058 -0.260964,-0.103868 v 0.246497 c 0.09346,0.03026 0.182195,0.05296 0.266131,0.0677 0.08481,0.0156 0.166032,0.02325 0.243914,0.02325 0.186915,0 0.333328,-0.03907 0.439767,-0.117824 0.107302,-0.07874 0.161229,-0.185917 0.161229,-0.320911 0,-0.11852 -0.03618,-0.210669 -0.108003,-0.276468 -0.07096,-0.06664 -0.191092,-0.118179 -0.360701,-0.154511 l -0.08165,-0.01809 c -0.128077,-0.0286 -0.213399,-0.05827 -0.255799,-0.0894 -0.0424,-0.032 -0.06356,-0.07586 -0.06356,-0.13126 0,-0.0727 0.02952,-0.126963 0.08837,-0.163298 0.05971,-0.03633 0.148614,-0.05478 0.267165,-0.05478 0.07788,0 0.153139,0.0085 0.225828,0.02584 0.07269,0.01733 0.142824,0.04343 0.210322,0.07803 v -0.225824 c -0.06577,-0.02593 -0.137607,-0.04539 -0.21549,-0.0584 -0.07788,-0.013 -0.160813,-0.01964 -0.249081,-0.01964 z m 1.38493,0 c -0.178263,0 -0.315976,0.0372 -0.412896,0.111623 -0.09692,0.07442 -0.145211,0.180056 -0.145211,0.316777 0,0.112533 0.03293,0.201266 0.0987,0.266131 0.06576,0.06406 0.172418,0.111496 0.320394,0.142629 l 0.0832,0.01964 c 0.147977,0.03206 0.243539,0.06513 0.286803,0.09973 0.04414,0.03458 0.06615,0.08441 0.06615,0.149344 0,0.07011 -0.03038,0.124881 -0.09095,0.163815 -0.06057,0.03807 -0.146918,0.05684 -0.259414,0.05684 -0.08394,0 -0.168579,-0.01112 -0.254248,-0.03359 -0.08567,-0.02336 -0.172702,-0.058 -0.260967,-0.103868 v 0.246497 c 0.09346,0.03026 0.182195,0.05296 0.266134,0.0677 0.0848,0.0156 0.166031,0.02325 0.243911,0.02325 0.186918,0 0.333846,-0.03907 0.440286,-0.117824 0.107304,-0.07874 0.160713,-0.185917 0.160713,-0.320911 0,-0.11852 -0.03566,-0.210669 -0.107487,-0.276468 -0.07096,-0.06664 -0.191609,-0.118179 -0.36122,-0.154511 l -0.08165,-0.01809 c -0.128074,-0.0286 -0.213397,-0.05827 -0.255799,-0.0894 -0.0424,-0.032 -0.06356,-0.07586 -0.06356,-0.13126 0,-0.0727 0.02952,-0.126963 0.08837,-0.163298 0.05971,-0.03633 0.148614,-0.05478 0.267168,-0.05478 0.07788,0 0.153136,0.0085 0.225825,0.02584 0.07269,0.01733 0.142827,0.04343 0.210325,0.07803 v -0.225824 c -0.06577,-0.02593 -0.13761,-0.04539 -0.215493,-0.0584 -0.07788,-0.013 -0.160813,-0.01964 -0.249078,-0.01964 z m 3.66024,5.19e-4 c -0.20855,0 -0.371856,0.06705 -0.490408,0.202054 -0.117689,0.134993 -0.176733,0.321855 -0.176733,0.560689 0,0.237974 0.05904,0.425347 0.176733,0.561205 0.118552,0.135001 0.281858,0.202057 0.490408,0.202057 0.207685,0 0.370824,-0.06706 0.489376,-0.202057 0.118555,-0.135858 0.178284,-0.323231 0.178284,-0.561205 0,-0.238834 -0.05973,-0.425696 -0.178284,-0.560689 -0.118552,-0.135001 -0.281691,-0.202054 -0.489376,-0.202054 z m 1.783871,0 c -0.115091,0 -0.213045,0.02133 -0.293523,0.06459 -0.08048,0.0424 -0.145667,0.107588 -0.195853,0.195853 v -0.225825 h -0.240294 v 1.454174 h 0.240294 v -0.765845 c 0,-0.16442 0.03566,-0.290353 0.107487,-0.377753 0.07269,-0.08827 0.176615,-0.132292 0.311608,-0.132292 0.03808,0 0.07272,0.0036 0.10387,0.01137 0.03202,0.0069 0.06154,0.01799 0.08837,0.03359 l -0.0015,-0.244946 c -0.02423,-0.004 -0.04625,-0.0073 -0.06615,-0.0093 -0.01991,-0.0027 -0.03782,-0.0036 -0.05426,-0.0036 z m -4.66018,0.03462 0.380338,1.454174 h 0.281636 l 0.314193,-1.19166 0.312642,1.19166 h 0.282154 l 0.37982,-1.454174 h -0.238744 l -0.29714,1.134814 -0.298688,-1.134814 h -0.281636 l -0.29714,1.134814 -0.298691,-1.134814 z m 6.734471,0.07958 v 0.329695 h 0.273886 v -0.329695 z m -1.199409,0.08526 c 0.126341,0 0.225483,0.05052 0.298172,0.150897 0.07269,0.09952 0.109038,0.236718 0.109038,0.412377 0,0.175668 -0.03635,0.314058 -0.109038,0.414446 -0.07269,0.09951 -0.171831,0.149344 -0.298172,0.149344 -0.126341,0 -0.225999,-0.04983 -0.298691,-0.149344 -0.07182,-0.100388 -0.108003,-0.238778 -0.108003,-0.414446 0,-0.175659 0.03618,-0.312859 0.108003,-0.412377 0.07269,-0.10038 0.17235,-0.150897 0.298691,-0.150897 z m -2.658753,0.0026 c 0.127206,0 0.228404,0.05068 0.302824,0.151929 0.07442,0.10038 0.111622,0.236561 0.111622,0.40876 0,0.173075 -0.0372,0.30993 -0.111622,0.410311 -0.07442,0.10038 -0.175618,0.150894 -0.302824,0.150894 -0.128937,0 -0.230471,-0.04983 -0.30489,-0.149344 -0.07356,-0.10038 -0.110072,-0.237921 -0.110072,-0.411861 0,-0.173934 0.0372,-0.310279 0.111623,-0.409794 0.07442,-0.100381 0.175268,-0.150895 0.303339,-0.150895 z m -6.475574,0.555522 h 0.237713 v 0.05323 c 0,0.155768 -0.04045,0.28085 -0.120923,0.375171 -0.07961,0.09346 -0.185412,0.140044 -0.31781,0.140044 -0.09606,0 -0.17268,-0.02456 -0.228928,-0.0739 -0.05538,-0.05019 -0.08268,-0.117766 -0.08268,-0.202573 0,-0.106439 0.0372,-0.181692 0.111622,-0.225824 0.07442,-0.04413 0.208034,-0.06615 0.401008,-0.06615 z m 10.333736,0.401526 v 0.329695 h 0.273886 v -0.329695 z" />
    </g>
    <text
       xml:space="preserve"
       style="font-size:18.1133px;line-height:1.25;font-family:sans-serif;stroke-width:0.679249"
       x="138.90016"
       y="75.13604"
       id="text9164"><tspan
         sodipodi:role="line"
         id="tspan9162"
         style="stroke-width:0.679249"
         x="138.90016"
         y="75.13604">?</tspan></text>
  </g>
</svg>
